# xmcd
#
# Track frame offsets:
#	150
#	14758
#	26541
#	41698
#	54707
#	66543
#	82323
#	94807
#	108770
#	119713
#	133086
#	147500
#	161514
#	172237
#	184348
#
# Disc length: 2588 seconds
#
# Revision: 0
# Processed by: cddbd v1.5.2PL0 Copyright (c) Steve Scherf et al.
# Submitted via: EZCDAudioConverter 2.1.7.1
#
DISCID=eb0a1a0f
DTITLE=Bob Marley - Best Of The Early Singles 2/2
DYEAR=1900
DGENRE=
TTITLE0=Version Of Cup [My Cup Version]
TTITLE1=Necoteen [Man To Man Version]
TTITLE2=Duppy Conqueror [Version 4]
TTITLE3=Dracula [Mr. Brown Version]
TTITLE4=Kaya [Version]
TTITLE5=Battle Axe [Small Axe Version]
TTITLE6=The Axe Man [More Axe Version]
TTITLE7=Copasetic [All In One Version]
TTITLE8=Dreamland [Version]
TTITLE9=Shining [Lovelight Version]
TTITLE10=Downpressor [Version]
TTITLE11=Keep On Moving [Version]
TTITLE12=African Herbsman [Version]
TTITLE13=Run For Cover [Version]
TTITLE14=Sun Is Shining [Version]
EXTD=
EXTT0=
EXTT1=
EXTT2=
EXTT3=
EXTT4=
EXTT5=
EXTT6=
EXTT7=
EXTT8=
EXTT9=
EXTT10=
EXTT11=
EXTT12=
EXTT13=
EXTT14=
PLAYORDER=
